<svg width="21" height="24" viewBox="0 0 21 24" fill="none" xmlns="http://www.w3.org/2000/svg">
<path fill-rule="evenodd" clip-rule="evenodd" d="M5.02344 17.5813C5.02344 17.1192 5.3985 16.7441 5.86065 16.7441C6.3228 16.7441 6.69786 17.1192 6.69786 17.5813V20.9302C6.69786 21.3007 6.84512 21.6547 7.10637 21.9169C7.36875 22.1781 7.72251 22.3254 8.09309 22.3254H17.5813C17.9519 22.3254 18.3059 22.1781 18.568 21.9169C18.8293 21.6545 18.9765 21.3007 18.9765 20.9302V3.06984C18.9765 2.69926 18.8293 2.34529 18.568 2.08312C18.3056 1.82187 17.9519 1.67461 17.5813 1.67461H8.09309C7.72251 1.67461 7.36854 1.82187 7.10637 2.08312C6.84512 2.3455 6.69786 2.69926 6.69786 3.06984V6.41868C6.69786 6.88083 6.3228 7.25589 5.86065 7.25589C5.3985 7.25589 5.02344 6.88083 5.02344 6.41868V3.06984C5.02344 2.25597 5.34711 1.47464 5.92212 0.898686C6.49808 0.323833 7.2796 0 8.09327 0H17.5815C18.3954 0 19.1767 0.32367 19.7526 0.898686C20.3275 1.47464 20.6513 2.25616 20.6513 3.06984V20.9302C20.6513 21.744 20.3277 22.5254 19.7526 23.1013C19.1767 23.6762 18.3952 24 17.5815 24H8.09327C7.27941 24 6.49808 23.6763 5.92212 23.1013C5.34727 22.5254 5.02344 21.7438 5.02344 20.9302V17.5813Z" fill="black"/>
<path fill-rule="evenodd" clip-rule="evenodd" d="M0.83721 12.837C0.375061 12.837 0 12.4619 0 11.9997C0 11.5376 0.375061 11.1625 0.83721 11.1625H12.5582C13.0203 11.1625 13.3954 11.5376 13.3954 11.9997C13.3954 12.4619 13.0203 12.837 12.5582 12.837H0.83721Z" fill="black"/>
<path fill-rule="evenodd" clip-rule="evenodd" d="M8.61735 8.68439C8.29031 8.35848 8.29031 7.82699 8.61735 7.5011C8.94326 7.17407 9.47475 7.17407 9.80064 7.5011L13.7077 11.4081C14.0347 11.7352 14.0347 12.2644 13.7077 12.5914L9.80064 16.4985C9.47472 16.8255 8.94324 16.8255 8.61735 16.4985C8.29031 16.1726 8.29031 15.6411 8.61735 15.3152L11.9316 11.9998L8.61735 8.68439Z" fill="black"/>
</svg>
